<svg xmlns="http://www.w3.org/2000/svg" width="375" height="812" fill="none" viewBox="0 0 375 812">
    <path fill="#fff" d="M0 0H375V812H0z"/>
    <g opacity=".2">
        <path fill="#FFC5C5" d="M-14.907 426.665l-141.168 88.23 361.957 263.026-220.789-351.256z"/>
        <path fill="#EB7676" d="M-175.537 531.78l150.895-46.017L90.682 638.117-175.537 531.78" opacity=".35"/>
    </g>
    <path stroke="#FFE7E7" stroke-miterlimit="10" stroke-width="3" d="M211.585 795.562l-377.711-315.165"/>
    <path stroke="#fff" stroke-miterlimit="10" stroke-width="2" d="M211.584 759.416l-367.659-244.521"/>
    <g opacity=".2">
        <path fill="url(#paint0_linear)" d="M401.296 231.436l110.109 68.818-282.322 205.157 172.213-273.975z"/>
        <path fill="#FF6269" d="M512.544 300.965l-117.697-35.893-89.951 118.835 207.648-82.942" opacity=".3"/>
        <path fill="#FF6269" d="M221.725 510.303l6.769-5.604 118.074-173.285 168.749-33.737-293.592 212.626z" opacity=".3"/>
    </g>
    <path stroke="#FFE4E4" stroke-miterlimit="10" stroke-width="3" d="M224.637 519.171l294.61-245.825"/>
    <path stroke="#fff" stroke-miterlimit="10" stroke-width="2" d="M224.636 490.978l286.77-190.723"/>
    <path style="mix-blend-mode:screen" fill="url(#paint1_radial)" d="M111.042 483.863l344.115-190.887-77.67-75.345-266.445 266.232z" opacity=".2"/>
    <defs>
        <radialGradient id="paint1_radial" cx="0" cy="0" r="1" gradientTransform="rotate(-58 1309.078 798.472) scale(146.371 146.243)" gradientUnits="userSpaceOnUse">
            <stop stop-color="#262C38"/>
            <stop offset=".244" stop-color="#222732"/>
            <stop offset=".557" stop-color="#171B22"/>
            <stop offset=".906" stop-color="#050608"/>
            <stop offset="1"/>
        </radialGradient>
        <linearGradient id="paint0_linear" x1="-29.015" x2="-200.524" y1="2415.47" y2="2689.89" gradientUnits="userSpaceOnUse">
            <stop stop-color="#FFB7B9"/>
            <stop offset=".059" stop-color="#FF5332"/>
            <stop offset=".142" stop-color="#FF6920"/>
            <stop offset=".239" stop-color="#FF7A11"/>
            <stop offset=".36" stop-color="#FF8607"/>
            <stop offset=".53" stop-color="#FF8D01"/>
            <stop offset="1" stop-color="#FF8F00"/>
        </linearGradient>
    </defs>
</svg>
