<svg xmlns="http://www.w3.org/2000/svg" width="131" height="131" fill="none" viewBox="0 0 131 131">
    <path fill="#E31A50" d="M65.5 107.08c22.964 0 41.58-18.616 41.58-41.58S88.464 23.92 65.5 23.92 23.92 42.536 23.92 65.5s18.616 41.58 41.58 41.58z"/>
    <path stroke="#787878" stroke-opacity=".1" stroke-width="16" d="M65.5 115.08c27.382 0 49.58-22.198 49.58-49.58 0-27.382-22.198-49.58-49.58-49.58-27.382 0-49.58 22.198-49.58 49.58 0 27.382 22.198 49.58 49.58 49.58z"/>
    <path fill="#E31A50" d="M65.5 115c27.338 0 49.5-22.162 49.5-49.5S92.838 16 65.5 16 16 38.162 16 65.5 38.162 115 65.5 115z"/>
    <path stroke="#787878" stroke-opacity=".1" stroke-width="16" d="M65.5 123c31.756 0 57.5-25.744 57.5-57.5S97.256 8 65.5 8 8 33.744 8 65.5 33.744 123 65.5 123z"/>
    <path fill="#fff" d="M76 33.25l-7.239 27c-3.074-.76-7.23-4.686-6.058-10.901.255-1.37.947-2.552 1.759-3.546L76 33.25zM52 97.75l7.239-27c3.074.76 7.23 4.686 6.058 10.901-.255 1.37-.947 2.552-1.759 3.547L52 97.75z"/>
    <path fill="#fff" d="M76.45 63.911s-5.774-1.147-7.899-1.841c-9.701-3.147-7.768-11.362-6.961-12.32L49.98 61.876c-1.811 1.982-1.005 4.685 1.543 5.213 0 0 5.774 1.147 7.9 1.837 9.7 3.147 7.768 11.361 6.96 12.324l11.611-12.126c1.684-1.912 1.309-4.62-1.543-5.213z"/>
</svg>
