<svg xmlns="http://www.w3.org/2000/svg" width="121" height="121" fill="none" viewBox="0 0 121 121">
    <g fill="#E31A50" clip-path="url(#clip0)">
        <path d="M50.414 75.093L35.397 62.616l-3.243 4.22 16.91 14.079 1.695 1.407 38.058-39.6-3.65-3.785-34.753 36.156z"/>
        <path fill-rule="evenodd" d="M121 60.5c0 33.413-27.087 60.5-60.5 60.5S0 93.913 0 60.5 27.087 0 60.5 0 121 27.087 121 60.5zm-5.261 0c0 30.508-24.731 55.239-55.239 55.239-30.508 0-55.24-24.731-55.24-55.239 0-30.508 24.732-55.24 55.24-55.24 30.508 0 55.239 24.732 55.239 55.24z" clip-rule="evenodd"/>
    </g>
    <defs>
        <clipPath id="clip0">
            <path fill="#fff" d="M0 0H121V121H0z"/>
        </clipPath>
    </defs>
</svg>
