<svg xmlns="http://www.w3.org/2000/svg" width="278" height="260" fill="none" viewBox="0 0 278 260">
    <path fill="url(#paint0_linear)" d="M130.39 248.265c-.005 0-.015-.005-.019-.005C1.701 204.054 17.627 39.966 17.627 39.966 85.371 55.386 129.328 1.326 130.371.025L130.39 0s44.191 55.57 112.759 39.966c0 0 15.921 164.108-112.759 208.299z"/>
    <path fill="url(#paint1_linear)" d="M130.39 248.265c-.005 0-.015-.005-.019-.005C1.701 204.054 17.627 39.966 17.627 39.966 85.371 55.386 129.328 1.326 130.371.025L130.39 0s44.191 55.57 112.759 39.966c0 0 15.921 164.108-112.759 208.299z"/>
    <g opacity=".25">
        <path fill="#fff" d="M29.741 57.7c-.184 0-.377-.02-.561-.059-.179-.04-.363-.09-.536-.164-.174-.07-.338-.159-.497-.263-.154-.11-.298-.223-.432-.357-.536-.537-.839-1.271-.839-2.026 0-.755.303-1.494.84-2.026.133-.134.277-.253.431-.357.16-.11.323-.199.497-.268.174-.07.357-.13.536-.164.367-.07.75-.07 1.122 0 .184.04.362.094.536.164.179.07.343.159.497.268.159.104.302.223.432.357.536.527.839 1.266.839 2.026 0 .184-.02.377-.06.561-.04.179-.09.362-.159.536-.074.174-.164.338-.268.492-.1.159-.223.307-.357.437-.13.134-.274.248-.432.357-.154.104-.318.189-.497.263-.174.075-.347.13-.536.164-.184.04-.367.06-.556.06zM103.199 38.63c-.522-.948-1.51-1.5-2.527-1.5-.457 0-.924.125-1.36.353-.959.532-1.5 1.51-1.5 2.527 0 .457.114.924.352 1.36.522.959 1.51 1.5 2.527 1.5.457 0 .939-.114 1.361-.352.958-.532 1.489-1.51 1.489-2.517 0-.467-.114-.934-.342-1.37zM69.141 52.273c-.283-1.34-1.475-2.269-2.785-2.269-.199 0-.398.02-.601.065h-.01c-1.54.332-2.527 1.852-2.194 3.4.143.666.51 1.237 1.007 1.634.502.407 1.122.636 1.788.636.198 0 .397-.02.59-.075 1.35-.283 2.27-1.465 2.27-2.785 0-.199-.02-.397-.065-.606zM130.39 21.3c-.183 0-.377-.02-.561-.056-.183-.04-.362-.094-.536-.163-.174-.07-.337-.16-.496-.263-.154-.11-.298-.224-.432-.358-.134-.134-.253-.278-.358-.437-.104-.154-.188-.317-.268-.491-.069-.174-.119-.358-.159-.537-.039-.188-.059-.377-.059-.56 0-.194.02-.378.059-.561.04-.184.09-.363.159-.537.075-.178.159-.342.268-.496.105-.159.224-.308.358-.432.129-.134.273-.253.432-.358.159-.109.322-.198.496-.268s.348-.129.536-.163c.368-.07.75-.07 1.122 0 .184.04.363.094.537.163.173.07.337.16.496.268.154.105.298.224.432.358.134.129.253.273.357.432.105.154.194.318.264.496.074.174.129.353.163.537.04.183.06.367.06.56 0 .184-.02.378-.06.561-.039.18-.089.363-.163.537-.07.174-.159.337-.264.491-.104.16-.223.308-.357.437-.134.134-.278.248-.432.358-.159.104-.323.193-.496.263-.174.07-.348.129-.537.163-.188.035-.377.055-.561.055zM161.454 37.483c-.436-.238-.903-.352-1.37-.352-1.008 0-1.996.55-2.517 1.5-.76 1.384-.248 3.117 1.142 3.877.437.238.904.352 1.36.352 1.018 0 1.996-.541 2.527-1.5.229-.426.343-.893.343-1.36.005-1.007-.526-1.995-1.485-2.517zm33.562 12.576c-.209-.04-.407-.065-.601-.065-1.321 0-2.507.924-2.795 2.28-.333 1.538.655 3.067 2.204 3.39.199.04.407.075.606.075.665 0 1.291-.229 1.787-.636.502-.407.864-.968 1.008-1.643.04-.199.065-.397.065-.601-.005-1.326-.934-2.507-2.274-2.8zM231.02 57.7c-.184 0-.377-.02-.561-.059-.179-.04-.362-.09-.536-.159-.174-.074-.338-.164-.497-.268-.154-.104-.298-.223-.432-.357-.134-.134-.253-.278-.357-.432-.104-.16-.189-.323-.263-.497-.075-.173-.129-.347-.164-.536-.04-.184-.06-.377-.06-.56 0-.185.02-.378.06-.562.04-.184.089-.362.164-.536.069-.174.159-.343.263-.497.104-.154.223-.297.357-.431.661-.67 1.649-.974 2.582-.785.184.04.362.09.536.159.179.074.343.164.497.268.159.104.303.223.432.358.134.134.253.278.357.431.109.154.194.323.268.497.07.174.129.347.159.536.04.184.06.377.06.561 0 .184-.02.377-.06.561-.035.184-.089.362-.159.536-.074.174-.159.338-.268.497-.099.154-.223.298-.357.432-.129.134-.273.253-.432.357-.154.104-.318.189-.497.268-.174.07-.347.12-.536.16-.179.039-.362.059-.556.059zM229.804 83.388c-.105-.01-.199-.01-.293-.01-1.465 0-2.706 1.092-2.86 2.557-.154 1.578.978 2.993 2.547 3.152.104.01.208.02.303.02.73 0 1.405-.283 1.911-.74.511-.456.864-1.102.938-1.842.01-.094.01-.198.01-.292 0-1.44-1.082-2.686-2.556-2.845zM34.105 85.989c-.05-.476-.208-.913-.457-1.29-.521-.78-1.405-1.281-2.373-1.281-.104 0-.208 0-.313.01-.56.064-1.072.283-1.474.605-.74.591-1.177 1.54-1.073 2.547.085.74.427 1.37.939 1.832.511.457 1.186.73 1.901.73.105 0 .209 0 .313-.01 1.465-.154 2.557-1.405 2.557-2.84 0-.104 0-.198-.02-.303zm190.952 28.483c-.208-.05-.427-.075-.635-.075-1.301 0-2.488.894-2.785 2.225-.343 1.539.615 3.078 2.164 3.43.209.04.417.075.626.075.655 0 1.281-.229 1.777-.616.502-.397.874-.958 1.018-1.614.05-.218.074-.426.074-.645 0-1.301-.903-2.477-2.239-2.78zm-185.908 2.194c-.303-1.32-1.474-2.224-2.785-2.224-.209 0-.427.02-.645.075-1.54.352-2.508 1.881-2.155 3.42.154.665.521 1.226 1.018 1.614.486.397 1.112.625 1.767.625.209 0 .427-.02.636-.074 1.33-.303 2.224-1.49 2.224-2.785.005-.224-.015-.432-.06-.651zm177.235 28.016c-.343-.134-.685-.199-1.028-.199-1.152 0-2.234.696-2.671 1.842-.571 1.475.169 3.128 1.644 3.704.332.124.685.189 1.027.189.571 0 1.132-.179 1.604-.487.467-.323.854-.779 1.072-1.35.124-.333.189-.685.189-1.018-.005-1.162-.7-2.244-1.837-2.681zm-168.269 1.673c-.437-1.132-1.529-1.832-2.67-1.832-.343 0-.696.065-1.028.189-1.475.571-2.215 2.234-1.644 3.713.219.561.591 1.018 1.063 1.341.476.313 1.037.486 1.613.486.343 0 .685-.064 1.028-.198 1.132-.437 1.832-1.519 1.832-2.671-.005-.338-.07-.68-.194-1.028zm154.959 26.78c-.457-.283-.978-.407-1.475-.407-.968 0-1.911.486-2.452 1.37-.82 1.35-.398 3.108.958 3.942.466.268.978.407 1.489.407.968 0 1.912-.487 2.453-1.375.283-.467.407-.978.407-1.475-.005-.973-.497-1.921-1.38-2.462zm-141.42.998c-.541-.884-1.49-1.371-2.453-1.371-.5 0-1.017.134-1.474.417-1.36.82-1.787 2.577-.968 3.932.541.884 1.49 1.371 2.453 1.371.51 0 1.017-.124 1.489-.407.03-.02.064-.04.094-.065l.01-.01c.75-.501 1.187-1.301 1.256-2.13v-.01c.01-.084.01-.154.01-.238 0-.511-.134-1.018-.417-1.489zm122.901 24.356c-.551-.521-1.271-.789-1.976-.789-.759 0-1.519.303-2.07.894-1.102 1.142-1.052 2.954.094 4.046.551.531 1.271.789 1.976.789.75 0 1.51-.302 2.081-.883.521-.561.779-1.271.779-1.976 0-.76-.293-1.51-.884-2.081zm-104.254.135c-.57-.591-1.32-.894-2.08-.894-.705 0-1.415.258-1.966.789-1.142 1.092-1.196 2.9-.094 4.056.551.581 1.31.884 2.06.884.72 0 1.435-.258 1.986-.789.581-.571.884-1.321.884-2.08 0-.705-.258-1.415-.79-1.966zm80.543 20.434c-.541-.844-1.465-1.301-2.403-1.301-.531 0-1.072.144-1.559.467-1.321.864-1.693 2.641-.834 3.962.551.844 1.465 1.301 2.403 1.301.541 0 1.082-.154 1.559-.467.844-.541 1.301-1.465 1.301-2.403 0-.526-.144-1.067-.467-1.559zm-56.925-.809c-.477-.313-1.018-.467-1.549-.467-.939 0-1.862.457-2.403 1.311-.864 1.321-.487 3.098.834 3.952.486.323 1.027.467 1.559.467.933 0 1.861-.457 2.403-1.301.322-.477.466-1.018.466-1.559 0-.938-.456-1.862-1.31-2.403zm29.167 15.485c-.427-1.157-1.519-1.862-2.681-1.862h-.03c-.322.01-.655.065-.968.189-1.489.551-2.234 2.194-1.683 3.679.219.58.606 1.037 1.073 1.36.456.313 1.008.486 1.578.501h.03c.333 0 .675-.064 1.008-.188 1.157-.437 1.862-1.519 1.862-2.681 0-.333-.065-.665-.189-.998z" opacity=".25"/>
    </g>
    <path fill="url(#paint2_linear)" d="M130.375 220.374c-39.866-16.642-66.551-50.03-79.385-99.394-5.094-19.595-7.04-38.07-7.67-52.169 38.794-.452 68.736-18.052 87.055-32.777 18.315 14.72 48.242 32.315 87.012 32.777-.651 14.502-2.661 33.576-7.988 53.53-12.973 48.614-39.539 81.55-79.024 98.033z"/>
    <path fill="#000" d="M130.39 248.265c-.005 0-.015-.005-.02-.005V.025l.02-.025s44.191 55.57 112.759 39.966c0 0 15.921 164.108-112.759 208.299z" opacity=".25"/>
    <path fill="#fff" d="M130 127.379l18.5-11.107 18.5-11.171L148.5 94 130 105.101 111.5 94 93 105.101l18.5 11.171 18.5 11.107z"/>
    <path fill="#fff" d="M148.5 124.628L130 135.729l-18.5-11.101L93 135.729l18.5 11.171L130 158l18.5-11.1 18.5-11.171-18.5-11.101z"/>
    <path fill="#6C4AF2" d="M3.48 189.74c0 .96-.78 1.74-1.74 1.74S0 190.7 0 189.74.78 188 1.74 188s1.74.78 1.74 1.74zM23.32 189.74c0 .96-.78 1.74-1.74 1.74s-1.74-.78-1.74-1.74.78-1.74 1.74-1.74 1.74.78 1.74 1.74zM43.16 189.74c0 .96-.78 1.74-1.74 1.74s-1.74-.78-1.74-1.74.78-1.74 1.74-1.74 1.74.78 1.74 1.74zM62.99 189.74c0 .96-.78 1.74-1.74 1.74s-1.74-.78-1.74-1.74.78-1.74 1.74-1.74 1.74.78 1.74 1.74zM82.83 189.74c0 .96-.78 1.74-1.74 1.74s-1.74-.78-1.74-1.74.78-1.74 1.74-1.74 1.74.78 1.74 1.74zM3.48 206.76c0 .96-.78 1.74-1.74 1.74S0 207.72 0 206.76s.78-1.74 1.74-1.74c.96-.01 1.74.77 1.74 1.74zM23.32 206.76c0 .96-.78 1.74-1.74 1.74s-1.74-.78-1.74-1.74.78-1.74 1.74-1.74c.96-.01 1.74.77 1.74 1.74zM43.16 206.76c0 .96-.78 1.74-1.74 1.74s-1.74-.78-1.74-1.74.78-1.74 1.74-1.74c.96-.01 1.74.77 1.74 1.74zM62.99 206.76c0 .96-.78 1.74-1.74 1.74s-1.74-.78-1.74-1.74.78-1.74 1.74-1.74c.96-.01 1.74.77 1.74 1.74zM82.83 206.76c0 .96-.78 1.74-1.74 1.74s-1.74-.78-1.74-1.74.78-1.74 1.74-1.74c.96-.01 1.74.77 1.74 1.74zM3.48 223.77c0 .96-.78 1.74-1.74 1.74S0 224.73 0 223.77s.78-1.74 1.74-1.74 1.74.78 1.74 1.74zM23.32 223.77c0 .96-.78 1.74-1.74 1.74s-1.74-.78-1.74-1.74.78-1.74 1.74-1.74 1.74.78 1.74 1.74zM43.16 223.77c0 .96-.78 1.74-1.74 1.74s-1.74-.78-1.74-1.74.78-1.74 1.74-1.74 1.74.78 1.74 1.74zM62.99 223.77c0 .96-.78 1.74-1.74 1.74s-1.74-.78-1.74-1.74.78-1.74 1.74-1.74 1.74.78 1.74 1.74zM82.83 223.77c0 .96-.78 1.74-1.74 1.74s-1.74-.78-1.74-1.74.78-1.74 1.74-1.74 1.74.78 1.74 1.74zM3.48 240.78c0 .96-.78 1.74-1.74 1.74S0 241.74 0 240.78s.78-1.74 1.74-1.74 1.74.78 1.74 1.74zM23.32 240.78c0 .96-.78 1.74-1.74 1.74s-1.74-.78-1.74-1.74.78-1.74 1.74-1.74 1.74.78 1.74 1.74zM43.16 240.78c0 .96-.78 1.74-1.74 1.74s-1.74-.78-1.74-1.74.78-1.74 1.74-1.74 1.74.78 1.74 1.74zM62.99 240.78c0 .96-.78 1.74-1.74 1.74s-1.74-.78-1.74-1.74.78-1.74 1.74-1.74 1.74.78 1.74 1.74zM82.83 240.78c0 .96-.78 1.74-1.74 1.74s-1.74-.78-1.74-1.74.78-1.74 1.74-1.74 1.74.78 1.74 1.74zM3.48 257.79c0 .96-.78 1.74-1.74 1.74S0 258.75 0 257.79s.78-1.74 1.74-1.74 1.74.78 1.74 1.74zM23.32 257.79c0 .96-.78 1.74-1.74 1.74s-1.74-.78-1.74-1.74.78-1.74 1.74-1.74 1.74.78 1.74 1.74zM43.16 257.79c0 .96-.78 1.74-1.74 1.74s-1.74-.78-1.74-1.74.78-1.74 1.74-1.74 1.74.78 1.74 1.74zM62.99 257.79c0 .96-.78 1.74-1.74 1.74s-1.74-.78-1.74-1.74.78-1.74 1.74-1.74 1.74.78 1.74 1.74zM82.83 257.79c0 .96-.78 1.74-1.74 1.74s-1.74-.78-1.74-1.74.78-1.74 1.74-1.74 1.74.78 1.74 1.74zM224.318 90.159c0 .64-.52 1.159-1.159 1.159S222 90.798 222 90.159c0-.64.52-1.159 1.159-1.159s1.159.52 1.159 1.159zM237.533 90.159c0 .64-.52 1.159-1.159 1.159-.64 0-1.159-.52-1.159-1.159 0-.64.519-1.159 1.159-1.159.639 0 1.159.52 1.159 1.159zM250.747 90.159c0 .64-.519 1.159-1.159 1.159-.639 0-1.159-.52-1.159-1.159 0-.64.52-1.159 1.159-1.159.64 0 1.159.52 1.159 1.159zM263.955 90.159c0 .64-.519 1.159-1.159 1.159-.639 0-1.159-.52-1.159-1.159 0-.64.52-1.159 1.159-1.159.64 0 1.159.52 1.159 1.159zM277.17 90.159c0 .64-.519 1.159-1.159 1.159-.639 0-1.159-.52-1.159-1.159 0-.64.52-1.159 1.159-1.159.64 0 1.159.52 1.159 1.159zM224.318 101.495c0 .639-.52 1.159-1.159 1.159s-1.159-.52-1.159-1.159.52-1.159 1.159-1.159c.639-.007 1.159.513 1.159 1.159zM237.533 101.495c0 .639-.52 1.159-1.159 1.159-.64 0-1.159-.52-1.159-1.159s.519-1.159 1.159-1.159c.639-.007 1.159.513 1.159 1.159zM250.747 101.495c0 .639-.519 1.159-1.159 1.159-.639 0-1.159-.52-1.159-1.159s.52-1.159 1.159-1.159c.64-.007 1.159.513 1.159 1.159zM263.955 101.495c0 .639-.519 1.159-1.159 1.159-.639 0-1.159-.52-1.159-1.159s.52-1.159 1.159-1.159c.64-.007 1.159.513 1.159 1.159zM277.17 101.495c0 .639-.519 1.159-1.159 1.159-.639 0-1.159-.52-1.159-1.159s.52-1.159 1.159-1.159c.64-.007 1.159.513 1.159 1.159zM224.318 112.825c0 .639-.52 1.159-1.159 1.159s-1.159-.52-1.159-1.159.52-1.159 1.159-1.159 1.159.52 1.159 1.159zM237.533 112.825c0 .639-.52 1.159-1.159 1.159-.64 0-1.159-.52-1.159-1.159s.519-1.159 1.159-1.159c.639 0 1.159.52 1.159 1.159zM250.747 112.825c0 .639-.519 1.159-1.159 1.159-.639 0-1.159-.52-1.159-1.159s.52-1.159 1.159-1.159c.64 0 1.159.52 1.159 1.159zM263.955 112.825c0 .639-.519 1.159-1.159 1.159-.639 0-1.159-.52-1.159-1.159s.52-1.159 1.159-1.159c.64 0 1.159.52 1.159 1.159zM277.17 112.825c0 .639-.519 1.159-1.159 1.159-.639 0-1.159-.52-1.159-1.159s.52-1.159 1.159-1.159c.64 0 1.159.52 1.159 1.159zM224.318 124.155c0 .639-.52 1.159-1.159 1.159s-1.159-.52-1.159-1.159.52-1.159 1.159-1.159 1.159.52 1.159 1.159zM237.533 124.155c0 .639-.52 1.159-1.159 1.159-.64 0-1.159-.52-1.159-1.159s.519-1.159 1.159-1.159c.639 0 1.159.52 1.159 1.159zM250.747 124.155c0 .639-.519 1.159-1.159 1.159-.639 0-1.159-.52-1.159-1.159s.52-1.159 1.159-1.159c.64 0 1.159.52 1.159 1.159zM263.955 124.155c0 .639-.519 1.159-1.159 1.159-.639 0-1.159-.52-1.159-1.159s.52-1.159 1.159-1.159c.64 0 1.159.52 1.159 1.159zM277.17 124.155c0 .639-.519 1.159-1.159 1.159-.639 0-1.159-.52-1.159-1.159s.52-1.159 1.159-1.159c.64 0 1.159.52 1.159 1.159zM224.318 135.484c0 .64-.52 1.159-1.159 1.159s-1.159-.519-1.159-1.159c0-.639.52-1.159 1.159-1.159s1.159.52 1.159 1.159zM237.533 135.484c0 .64-.52 1.159-1.159 1.159-.64 0-1.159-.519-1.159-1.159 0-.639.519-1.159 1.159-1.159.639 0 1.159.52 1.159 1.159zM250.747 135.484c0 .64-.519 1.159-1.159 1.159-.639 0-1.159-.519-1.159-1.159 0-.639.52-1.159 1.159-1.159.64 0 1.159.52 1.159 1.159zM263.955 135.484c0 .64-.519 1.159-1.159 1.159-.639 0-1.159-.519-1.159-1.159 0-.639.52-1.159 1.159-1.159.64 0 1.159.52 1.159 1.159zM277.17 135.484c0 .64-.519 1.159-1.159 1.159-.639 0-1.159-.519-1.159-1.159 0-.639.52-1.159 1.159-1.159.64 0 1.159.52 1.159 1.159z"/>
    <defs>
        <linearGradient id="paint0_linear" x1="181.868" x2="123.375" y1="373.562" y2="20.005" gradientUnits="userSpaceOnUse">
            <stop offset=".009" stop-color="#AB7BFF"/>
            <stop offset="1" stop-color="#F599EF"/>
        </linearGradient>
        <linearGradient id="paint1_linear" x1="181.868" x2="123.375" y1="373.562" y2="20.005" gradientUnits="userSpaceOnUse">
            <stop offset=".009" stop-color="#0B0754"/>
            <stop offset="1" stop-color="#6C4AF2"/>
        </linearGradient>
        <linearGradient id="paint2_linear" x1="159.927" x2="79.986" y1="274.056" y2="-267.98" gradientUnits="userSpaceOnUse">
            <stop offset=".01" stop-color="#6C4AF2"/>
            <stop offset="1" stop-color="#fff"/>
        </linearGradient>
    </defs>
</svg>
