<svg xmlns="http://www.w3.org/2000/svg" width="20" height="20" fill="none" viewBox="0 0 20 20">
    <g clip-path="url(#clip0)">
        <path fill="#fe812c" d="M10.072 6.432c-.958 0-1.877.38-2.554 1.055-.677.676-1.058 1.593-1.058 2.549 0 .955.38 1.872 1.058 2.548.677.676 1.596 1.056 2.554 1.056.944-.02 1.844-.41 2.504-1.083.661-.674 1.031-1.579 1.031-2.521 0-.943-.37-1.848-1.03-2.522-.662-.674-1.56-1.062-2.505-1.082zm7.163 5.653l-.639 1.555 1.277 2.544-1.63 1.625-2.625-1.201-1.56.636-.78 2.402-.071.354h-2.27l-.988-2.756-1.56-.636-2.556 1.272-1.63-1.625 1.205-2.615-.638-1.554-2.766-.919V8.906l2.766-.987.638-1.555-1.135-2.262-.142-.283 1.631-1.625 2.625 1.202 1.56-.636.78-2.402.07-.354h2.27l.989 2.756 1.56.636 2.555-1.273 1.631 1.626-1.206 2.614.64 1.555L20 8.836v2.262l-2.766.987z"/>
    </g>
    <defs>
        <clipPath id="clip0">
            <path fill="#fe812c" d="M0 0H20V20H0z"/>
        </clipPath>
    </defs>
</svg>
