<svg xmlns="http://www.w3.org/2000/svg" width="36" height="36" fill="none" viewBox="0 0 36 36">
    <rect width="36" height="36" fill="#FE812C" rx="2"/>
    <path fill="#fff" d="M25.778 10.223H10.222c-.294 0-.577.117-.785.325-.209.209-.326.491-.326.786v13.333c0 .295.117.577.326.786.208.208.49.325.785.325h15.556c.294 0 .577-.117.785-.325.209-.209.326-.491.326-.786V11.334c0-.295-.117-.577-.326-.786-.208-.208-.49-.325-.785-.325zm-12.822 2.222c.33 0 .651.098.926.28.274.184.487.444.613.749.127.304.16.64.095.963-.064.323-.223.62-.456.853-.233.233-.53.392-.853.456-.324.064-.659.031-.963-.095-.305-.126-.565-.34-.748-.614-.183-.274-.281-.596-.281-.926 0-.442.175-.865.488-1.178.313-.313.737-.488 1.179-.488zM11.333 23v-2.277l3.334-3.378c.104-.104.245-.162.391-.162.147 0 .288.058.392.162l1.439 1.405L12.622 23h-1.289zm13.334 0H14.194l3.461-3.46 3-3c.105-.104.245-.162.392-.162.147 0 .288.058.392.161l3.228 3.228V23z"/>
</svg>
