<svg xmlns="http://www.w3.org/2000/svg" width="24" height="24" fill="none" viewBox="0 0 24 24">
    <path fill="#8D90A0" d="M5.844 3.36C4.21 3.36 2.88 4.69 2.88 6.324v10.011c0 .439.243.835.634 1.034.167.085.348.127.527.127.24 0 .478-.075.68-.222l4.08-2.969h5.707c1.634 0 2.964-1.33 2.964-2.964V6.324c0-1.634-1.33-2.964-2.964-2.964H5.844zm12.54 4.116v3.865c0 2.137-1.739 3.876-3.876 3.876H9.099l-2.224 1.618c.5.936 1.485 1.575 2.617 1.575h5.706l4.08 2.967c.203.148.44.223.68.223.18 0 .36-.042.528-.127.39-.2.634-.596.634-1.034v-10.01c0-1.558-1.208-2.836-2.736-2.953z"/>
</svg>
