<svg xmlns="http://www.w3.org/2000/svg" width="32" height="32" fill="none" viewBox="0 0 32 32">
    <rect width="32" height="32" fill="#6C4AF2" rx="16"/>
    <path fill="#fff" d="M21.782 14.642c.04.017.084.025.129.025.066 0 .132-.02.187-.056.056-.037.1-.09.125-.152.026-.061.032-.13.02-.195-.014-.065-.046-.125-.094-.172l-4.234-4.233c-.065-.055-.147-.084-.232-.08-.085.002-.165.037-.225.097-.06.06-.095.14-.098.225-.003.085.026.167.08.232l.356.355-2.814 2.814c-.803-.193-1.643-.18-2.439.042-.796.22-1.523.64-2.112 1.22-.042.042-.075.091-.097.145-.023.054-.034.112-.034.171 0 .059.011.117.034.171.022.054.055.103.097.145l2.809 2.826-3.307 3.294c-.046.04-.084.089-.11.144-.027.055-.042.115-.045.176-.002.061.008.122.03.18.023.056.057.108.1.152.043.043.095.077.152.099.057.022.118.033.18.03.06-.002.12-.017.176-.044.055-.026.104-.064.144-.11l3.306-3.307 2.814 2.813c.041.041.09.074.145.096.054.022.112.033.17.033.06 0 .117-.012.171-.035.055-.023.104-.056.145-.098.578-.59.996-1.318 1.217-2.113.22-.796.236-1.635.045-2.439l2.812-2.811.287.287c.031.031.069.056.11.073z"/>
</svg>
