<svg xmlns="http://www.w3.org/2000/svg" id="Component_35_2" width="50.267" height="108.224" viewBox="0 0 50.267 108.224">
    <defs>
        <style>
            .cls-1{fill:#fff}
        </style>
    </defs>
    <path id="Path_9" d="M120.17 219.549l-12.681 45.243c-5.381-1.273-12.66-7.849-10.614-18.267a13.167 13.167 0 0 1 3.079-5.939z" class="cls-1" transform="translate(-73.984 -219.549)"/>
    <path id="Path_10" d="M75.488 342.38l12.681-45.243c5.381 1.273 12.66 7.849 10.614 18.267a13.167 13.167 0 0 1-3.079 5.939z" class="cls-1" transform="translate(-71.482 -234.156)"/>
    <path id="Path_16" d="M115.112 276.569s-9.672-2.055-13.236-3.289c-16.251-5.628-13.018-20.316-11.662-22.034L70.761 272.93c-3.037 3.542-1.682 8.382 2.585 9.324 0 0 9.671 2.055 13.235 3.289 16.251 5.627 13.018 20.316 11.663 22.035l19.456-21.685c2.824-3.419 2.194-8.259-2.588-9.324z" class="cls-1" transform="translate(-69.119 -225.333)"/>
</svg>
