<svg xmlns="http://www.w3.org/2000/svg" width="29" height="28" fill="none" viewBox="0 0 29 28">
    <path fill="#8c94bd" d="M8.068 3.36c-1.38 0-2.517 1.138-2.517 2.52v16.102c-.015.09-.015.182 0 .272v.986c0 1.382 1.137 2.52 2.517 2.52h15.101c.111.002.222-.02.325-.06.103-.042.197-.104.276-.182.08-.078.142-.171.185-.274.043-.103.065-.213.065-.324 0-.111-.022-.222-.065-.324-.043-.103-.106-.196-.185-.274-.08-.078-.173-.14-.276-.182-.103-.041-.214-.062-.325-.06H8.068c-.473 0-.839-.366-.839-.84v-.28h15.94c.223 0 .436-.089.593-.246.158-.158.246-.371.246-.594V5.88c0-1.382-1.137-2.52-2.517-2.52H8.068zm6.712 4.48c1.08 0 1.957.88 1.957 1.96s-.878 1.96-1.957 1.96c-1.08 0-1.958-.88-1.958-1.96s.878-1.96 1.958-1.96zm-2.517 5.6h5.034c.926 0 1.677.752 1.677 1.68v1.12c0 1.235-2.19 2.24-4.194 2.24-2.005 0-4.195-1.005-4.195-2.24v-1.12c0-.928.751-1.68 1.678-1.68z"/>
</svg>
