<svg xmlns="http://www.w3.org/2000/svg" width="29" height="28" fill="none" viewBox="0 0 29 28">
    <g clip-path="url(#clip0)">
        <path fill="#8c94bd" d="M9.367 2.8c-3.256 0-5.134 2.54-5.134 5.6 0 1.03.493 2.067.493 2.067-.198.114-.524.475-.442 1.117.153 1.198.673 1.501 1.003 1.526.126 1.118 1.326 2.548 1.746 2.757v1.866C6.1 20.533.5 18.666.5 25.2h8.4c0-3.898 1.74-5.61 3.438-6.54-.282-.244-.508-.538-.638-.927v-1.867c.357-.176 1.273-1.235 1.619-2.234-.293-.465-.523-1.052-.62-1.812-.08-.632.015-1.181.208-1.637-.145-.503-.274-1.134-.274-1.783 0-1.294.268-2.479.746-3.507-.431-.434-.986-.693-1.679-.693 0 0-.35-1.4-2.333-1.4zm10.266.002C16.378 2.8 14.5 5.339 14.5 8.4c0 1.03.492 2.067.492 2.067-.198.114-.523.475-.441 1.117.153 1.198.672 1.501 1.003 1.526.126 1.118 1.326 2.548 1.746 2.757v1.866c-.933 2.8-6.533.933-6.533 7.467H28.5c0-6.534-5.6-4.667-6.533-7.467v-1.867c.42-.208 1.62-1.637 1.746-2.754.33-.025.85-.33 1.003-1.528.082-.643-.244-1.003-.442-1.117 0 0 .493-.935.493-2.065 0-2.267-.89-4.2-2.8-4.2 0 0-.35-1.4-2.334-1.4z"/>
    </g>
    <defs>
        <clipPath id="clip0">
            <path fill="#fff" d="M0 0H28V28H0z" transform="translate(.5)"/>
        </clipPath>
    </defs>
</svg>
