<svg xmlns="http://www.w3.org/2000/svg" width="29" height="28" fill="none" viewBox="0 0 29 28">
    <path fill="#8c94bd" d="M7.318 3.92C5.411 3.92 3.86 5.47 3.86 7.378v11.68c0 .511.283.974.74 1.206.195.1.405.148.615.148.28 0 .558-.087.794-.26l4.76-3.463h6.657c1.907 0 3.458-1.551 3.458-3.458V7.378c0-1.907-1.551-3.458-3.458-3.458H7.318zm14.63 4.802v4.509c0 2.494-2.029 4.522-4.522 4.522h-6.31L8.52 19.64c.582 1.093 1.732 1.838 3.053 1.838h6.657l4.76 3.462c.236.172.514.26.794.26.21 0 .42-.05.615-.149.456-.232.74-.694.74-1.206V12.167c0-1.817-1.41-3.308-3.192-3.445z"/>
</svg>
